# xmcd
#
# Track frame offsets:
#	225
#	14344
#	23916
#	43471
#	56042
#	65765
#	78464
#	95236
#	106929
#	122006
#	145283
#	169963
#	189014
#	205118
#	222226
#	243325
#	253351
#	281305
#	297413
#	316840
#
# Disc length: 4423 seconds
#
# Revision: 2
# Processed by: cddbd v1.4PL0 Copyright (c) Steve Scherf et al.
# Submitted via: audiograbber 1.82.00
#
DISCID=34114414
DTITLE=Country Music - Glen Campbell - Live
DYEAR=1988
DGENRE=Country
TTITLE0=Rhinestone Cowboy
TTITLE1=Gentle On My Mind
TTITLE2=Medley: Wichita Lineman - Galveston - Country Boy
TTITLE3=By The Time I Get To Phoenix
TTITLE4=Dreams Of The Everyday Housewife
TTITLE5=Heartache No. 2
TTITLE6=Please Come To Boston
TTITLE7=It's Only Make Believe
TTITLE8=Crying
TTITLE9=Blue Grass Medley
TTITLE10=Milk Cow Blues
TTITLE11=Rollin' (In My Sweet Baby's Arms)
TTITLE12=I'm So Lonesome I Could Cry
TTITLE13=Southern Nights
TTITLE14=Amazing Grace
TTITLE15=Try A Little Kindness
TTITLE16=Mull Of Kintyre
TTITLE17=In Your Loving Arms Again
TTITLE18=It's In Your World Boys And Girls
TTITLE19=Trails And Tribulations
EXTD=CD 145.265
EXTT0=
EXTT1=
EXTT2=
EXTT3=
EXTT4=
EXTT5=
EXTT6=
EXTT7=
EXTT8=
EXTT9=
EXTT10=
EXTT11=
EXTT12=
EXTT13=
EXTT14=
EXTT15=
EXTT16=
EXTT17=
EXTT18=
EXTT19=
PLAYORDER=
